<?xml version="1.0" standalone="no"?>
<!DOCTYPE svg PUBLIC "-//W3C//DTD SVG 20010904//EN"
 "http://www.w3.org/TR/2001/REC-SVG-20010904/DTD/svg10.dtd">
<svg version="1.0" xmlns="http://www.w3.org/2000/svg"
 width="100.000000pt" height="100.000000pt" viewBox="0 0 100.000000 100.000000"
 preserveAspectRatio="xMidYMid meet">
<metadata>
Created by potrace 1.14, written by Peter Selinger 2001-2017
</metadata>
<g transform="translate(0.000000,100.000000) scale(0.100000,-0.100000)"
fill="#000000" stroke="none">
<path d="M415 867 c-53 -32 -71 -48 -72 -64 0 -13 -1 -29 -2 -36 0 -7 -39 -35
-86 -61 l-85 -48 0 -102 0 -101 -45 -25 c-48 -26 -47 -23 -47 -135 0 -78 -7
-70 122 -142 l36 -20 48 27 48 28 84 -50 84 -49 84 49 84 50 50 -28 49 -29 78
47 78 47 -1 48 c0 26 -1 66 -1 90 -1 40 -4 44 -46 67 l-45 25 0 101 0 102 -82
48 c-46 26 -85 51 -88 55 -3 5 -5 21 -4 36 1 24 -8 33 -72 70 -40 24 -79 43
-86 42 -7 0 -45 -20 -83 -42z m117 -43 l30 -16 -31 -19 c-29 -18 -34 -18 -61
-4 -17 9 -30 18 -30 20 0 4 50 33 58 35 2 0 17 -7 34 -16z m62 -106 c-2 -31
-33 -68 -56 -68 -20 0 -3 65 22 82 34 24 36 23 34 -14z m-248 -55 c-1 -18 126
-103 154 -102 18 0 162 84 160 93 -6 25 12 25 55 -2 l50 -31 0 -63 0 -63 -77
-45 -78 -45 0 -90 0 -91 -55 -29 -55 -30 -55 30 -55 29 0 91 0 90 -45 25 c-49
27 -47 21 -47 149 0 60 4 78 18 88 24 17 32 16 30 -4z m-84 -259 l31 -16 -24
-19 c-29 -23 -32 -23 -71 -3 l-30 16 28 18 c36 23 30 23 66 4z m533 0 c28 -18
25 -31 -11 -44 -24 -10 -74 5 -74 21 0 7 46 37 58 39 1 0 14 -7 27 -16z m-487
-156 c-33 -25 -38 -23 -38 17 0 27 6 37 28 49 27 14 27 14 30 -17 3 -23 -2
-35 -20 -49z m532 0 c-32 -26 -40 -22 -40 15 0 25 7 36 28 49 l27 17 3 -32 c3
-23 -2 -36 -18 -49z"/>
</g>
</svg>
